Coordinates
version=1
nRows=13
nColumns=36
inDegrees=yes

Units are S.I. units (second, meters, Newtons, ...)
If the header above contains a line with 'inDegrees', this indicates whether rotational values are in degrees (yes) or radians (no).

endheader
time	pelvis_tilt	pelvis_list	pelvis_rotation	pelvis_tx	pelvis_ty	pelvis_tz	hip_flexion_r	hip_adduction_r	hip_rotation_r	knee_angle_r	knee_angle_r_beta	ankle_angle_r	subtalar_angle_r	mtp_angle_r	hip_flexion_l	hip_adduction_l	hip_rotation_l	knee_angle_l	knee_angle_l_beta	ankle_angle_l	subtalar_angle_l	mtp_angle_l	lumbar_extension	lumbar_bending	lumbar_rotation	arm_flex_r	arm_add_r	arm_rot_r	elbow_flex_r	pro_sup_r	arm_flex_l	arm_add_l	arm_rot_l	elbow_flex_l	pro_sup_l
      2.96666670	     -2.81411200	      0.22236804	      2.19314527	      0.35920223	      0.85125052	      0.44982583	      6.34607486	     -8.61907586	     -7.66003042	      3.89231857	      0.06793377	      5.08149539	    -11.53059664	     -7.49999987	      5.82627162	     -5.23216227	     -3.75001550	      3.78714162	      0.06609809	      1.98080991	     -7.58785887	     -7.49999987	      7.52667272	      0.06166094	      7.96650163	     50.19842748	     10.95415470	     65.99145744	    125.05070713	     94.38561682	     45.24536557	      8.66378987	     72.66695867	    123.70918384	     85.50378295
      2.98333330	     -2.62280096	      0.28343734	      1.99567439	      0.35992262	      0.85177834	      0.45050531	      6.09513138	     -8.61442857	     -7.43130278	      3.97337655	      0.06934850	      4.94624574	    -11.35382509	     -7.49999987	      5.66436003	     -5.25423465	     -3.91490312	      4.02992333	      0.07033543	      1.67508706	     -7.90633562	     -7.49999987	      7.21765179	     -0.07198677	      7.60581490	     51.43196403	     11.50063790	     66.07192738	    124.39923873	     92.73749773	     46.20715304	      8.74465011	     72.85551809	    123.93074083	     84.33789165
      3.00000000	     -2.60815718	      0.34844958	      1.84730155	      0.35377817	      0.85452917	      0.45342827	      6.20786928	     -8.57934500	     -7.09741108	      4.27134408	      0.07454902	      4.97074733	    -11.15104180	     -7.49999987	      5.76413969	     -5.27343771	     -3.79957365	      4.36351250	      0.07615766	      1.43484881	     -8.07145082	     -7.49999987	      6.88507570	     -0.21041693	      7.07339423	     52.43250893	     11.81950144	     65.48359731	    123.48168424	     95.82447802	     46.99240557	      8.19255569	     72.31637209	    123.72808126	     86.68076670
      3.01666670	     -2.52335067	      0.37426261	      1.65622195	      0.35294813	      0.84634139	      0.44795369	      6.18511146	     -8.61242199	     -6.85359396	      4.20231155	      0.07334417	      4.93849742	    -11.05973159	     -7.49999987	      5.75667739	     -5.23605801	     -4.14292064	      4.45214796	      0.07770464	      1.55453531	     -8.23523261	     -7.49999987	      6.68542357	     -0.20118003	      6.29234228	     54.05702441	     11.99678307	     65.20932363	    123.51112270	     94.30774185	     48.77177957	      8.66425065	     71.75151379	    122.69539024	     85.61118001
      3.03333330	     -2.64939995	      0.49473879	      1.44083713	      0.34611813	      0.84929405	      0.44518547	      6.78428689	     -8.83607062	     -6.42836401	      4.58227238	      0.07997574	      4.96320277	    -11.11138156	     -7.49999987	      6.19719946	     -5.01293818	     -4.22801307	      4.65743864	      0.08128764	      1.51949463	     -8.47962973	     -7.49999987	      6.46051068	     -0.26769224	      6.00071665	     55.51786570	     11.83971723	     65.40004248	    123.44716090	     94.54225668	     49.83020690	      8.95845907	     71.46276372	    121.84175753	     85.81826344
      3.05000000	     -2.83085085	      0.67938677	      1.30407790	      0.34078071	      0.84311038	      0.44352542	      7.62596213	     -9.18842369	     -5.87612016	      5.00734915	      0.08739473	      5.25243453	    -11.40832221	     -7.49999987	      6.93656099	     -4.68235690	     -4.14009747	      5.07527229	      0.08858021	      1.62904157	     -9.00982311	     -7.49999987	      6.02555864	     -0.41947401	      5.59699786	     57.89403659	     12.05624409	     66.05144609	    123.64518760	     92.12990718	     51.61113762	      9.61815649	     71.31252023	    121.35555482	     84.02132920
      3.06666670	     -3.02969327	      0.83901585	      1.23953759	      0.34694616	      0.84590055	      0.44556326	      8.26734356	     -9.43889961	     -5.20592533	      5.36448058	      0.09362785	      5.06462836	    -12.05292207	     -7.49999987	      7.42674908	     -4.42540687	     -3.99514955	      5.36568887	      0.09364894	      1.38041948	     -9.57514986	     -7.49999987	      6.01041136	     -0.58043460	      5.52847049	     59.09430180	     12.59273657	     66.73622412	    123.49393747	     97.75865562	     51.93114977	     10.12982768	     71.64608726	    122.57685774	     89.64026704
      3.08333330	     -3.34448869	      1.01656578	      1.00877662	      0.34166111	      0.84250345	      0.44396533	      9.25064509	     -9.77493692	     -4.84355120	      6.05211961	      0.10562941	      5.36309397	    -12.21947550	     -7.49999987	      8.13410116	     -4.14630254	     -4.03053809	      5.75108399	      0.10037535	      1.51801121	    -10.06377208	     -7.49999987	      5.86137866	     -0.71635578	      5.41911397	     60.34696380	     13.08234453	     67.39356442	    123.72375923	     97.78751964	     52.83483925	     10.33059107	     71.39856379	    123.10799655	     89.68073591
      3.10000000	     -3.53067197	      1.10417136	      1.07916214	      0.34024057	      0.84908584	      0.44337686	      9.80630706	     -9.95703631	     -4.47695693	      6.31993312	      0.11030364	      5.28610245	    -12.44001056	     -7.49999987	      8.70757014	     -3.96024506	     -3.46442341	      6.08521072	      0.10620696	      1.07630094	    -11.16498574	     -7.49999987	      5.66763943	     -0.78003623	      4.91562214	     61.41732982	     13.98210071	     68.60185202	    123.48898726	     96.21941085	     52.79404310	     10.05900392	     71.57374781	    124.17543905	     88.22826816
      3.11666670	     -3.81776676	      1.23586795	      1.15467209	      0.34210911	      0.84129589	      0.44378477	     10.44350806	    -10.18310562	     -4.08503011	      6.71924058	      0.11727287	      5.33535336	    -12.83871885	     -7.49999987	      9.41783550	     -3.74921299	     -3.31441794	      6.57648235	      0.11478127	      1.14959695	    -11.40179973	     -7.49999987	      5.79475421	     -0.83801277	      4.59948653	     62.21526627	     14.57558399	     68.60504953	    123.04831440	     97.98509969	     52.73593042	      9.90528575	     71.45845282	    125.79197985	     89.65321141
      3.13333330	     -3.91659182	      1.26341084	      0.95256121	      0.33654649	      0.84799621	      0.44714927	     10.94681403	    -10.19194972	     -3.77469884	      7.12726668	      0.12439427	      5.28974534	    -12.97111728	     -7.49999987	      9.83651620	     -3.74410050	     -3.39461996	      6.85232432	      0.11959562	      1.01065837	    -11.55920334	     -7.49999987	      5.35773065	     -1.02400079	      4.42313783	     62.78604150	     14.33233649	     68.70911231	    122.87002061	     97.32844057	     52.82434578	      9.24069185	     71.33101823	    125.43313751	     89.18033100
      3.15000000	     -4.17176653	      1.29676475	      0.83430763	      0.33846384	      0.83744102	      0.44762763	     11.65554066	    -10.21774701	     -3.28324125	      7.62154687	      0.13302109	      5.33770778	    -13.48875113	     -7.49999987	     10.50110065	     -3.76560233	     -3.37777834	      7.35603213	      0.12838698	      1.19484902	    -11.92459184	     -7.49999987	      5.34545278	     -1.15556659	      4.54808749	     64.04829870	     14.12559624	     68.76955635	    122.94434357	     95.36894766	     53.15370233	      9.20080577	     71.26406231	    126.36881211	     87.37608938
      3.16666670	     -4.42772848	      1.31122285	      1.10018565	      0.33138981	      0.84132820	      0.44454140	     12.37627592	    -10.29191518	     -3.15038123	      8.22070857	      0.14347843	      5.50289560	    -13.87091351	     -7.49999987	     11.45556012	     -3.71731222	     -2.97711756	      8.13346142	      0.14195568	      1.22612460	    -12.23936320	     -7.49999987	      4.80659140	     -1.29552338	      4.38301538	     64.99900474	     12.55507007	     67.66030951	    122.68865982	     95.48809598	     53.90948888	      9.43956198	     71.08556727	    127.21791772	     87.51734028
